<svg xmlns="http://www.w3.org/2000/svg" version="1.1" xmlns:xlink="http://www.w3.org/1999/xlink" xmlns:svgjs="http://svgjs.dev/svgjs" width="100%" height="100%" viewBox="0 0 1000 600"><rect width="1000" height="600" x="0" y="0" fill="#4a171e"/><g><circle r="166.66666666666666" cx="423.8126017252604" cy="446.03474372652386" fill="#E2V144" transform="matrix(0.48610542555117997,0,0,0.48610542555117997,0,83.18009193826349)"/><path d="M394.2377054835545 521.034732584111L377.7962636654217 521.034732584111L377.7962636654217 371.03472914744674L469.8289234316483 371.03472914744674L469.8289234316483 385.1113060465331L394.2377054835545 385.1113060465331L394.2377054835545 521.034732584111ZM460.00347275608607 452.3128841627714L389.36720987647067 452.3128841627714L389.36720987647067 438.3207667250796L460.00347275608607 438.3207667250796L460.00347275608607 452.3128841627714Z " fill="#4a171e" transform="matrix(0.48610542555117997,0,0,0.48610542555117997,0,83.18009193826349)"/><path d="M686.8346496595362 497.641956485776L673.8125943486339 497.641956485776L673.8125943486339 372.6302255011139L687.9374183074865 372.6302255011139L759.8050857260338 481.92163746180387L756.426390294016 481.92163746180387L756.426390294016 372.6302255011139L769.3545929540288 372.6302255011139L769.3545929540288 497.641956485776L755.2532321578985 497.641956485776L683.4559542275183 388.35054452508604L686.8346496595362 388.35054452508604L686.8346496595362 497.641956485776ZM878.5756154265517 497.641956485776L863.2072438434147 497.641956485776L822.052856428419 446.28109328655955L860.6732222694013 397.1257673832436L875.5254042726466 397.1257673832436L835.7553434582693 447.80619886351207L835.9195855973257 444.09901915338133L878.5756154265517 497.641956485776ZM811.752527993309 497.641956485776L798.0735041261809 497.641956485776L798.0735041261809 397.1257673832436L811.752527993309 397.1257673832436L811.752527993309 497.641956485776ZM828.1532787362291 451.935715502645L809.4766012092413 451.935715502645L809.4766012092413 440.2041341414718L828.1532787362291 440.2041341414718L828.1532787362291 451.935715502645ZM929.584531184933 498.9089672727827L929.584531184933 498.9089672727827Q915.6474125278592 498.9089672727827 906.7079475306451 494.56828216914863Q897.7450193707087 490.2041339027922 893.4277974297971 481.3350583937452Q889.1340386516076 472.46598288469824 889.1340386516076 458.8808116684596L889.1340386516076 458.8808116684596L889.1340386516076 397.1257673832436L902.7192098678462 397.1257673832436L902.7192098678462 460.14782245546627Q902.7192098678462 474.50727804154235 909.2419691046586 481.07696360379936Q915.7412651787486 487.67011232877877 929.584531184933 487.67011232877877L929.584531184933 487.67011232877877Q943.5216498420068 487.67011232877877 949.9974827533745 481.07696360379936Q956.4498525020198 474.50727804154235 956.4498525020198 460.14782245546627L956.4498525020198 460.14782245546627L956.4498525020198 397.1257673832436L969.8003920910348 397.1257673832436L969.8003920910348 458.8808116684596Q969.8003920910348 472.46598288469824 965.5300964755678 481.3350583937452Q961.2598008601007 490.2041339027922 952.3437990256091 494.56828216914863Q943.4512603538398 498.9089672727827 929.584531184933 498.9089672727827ZM1011.6117480622563 497.641956485776L998.0969663341847 497.641956485776L998.0969663341847 398.908967750142Q1004.4320202692182 397.71234645130227 1011.7759902013128 396.8676725932978Q1019.1199601334072 396.02299873529336 1027.3086039235063 396.02299873529336L1027.3086039235063 396.02299873529336Q1048.7773978144533 396.02299873529336 1059.2888947140646 403.4138949928325Q1069.8003916136754 410.80479125037164 1069.8003916136754 426.3608681352874L1069.8003916136754 426.3608681352874Q1069.8942442645648 436.49695443134107 1064.7792747910935 443.2778084580992Q1059.6643053176222 450.0821256475797 1049.833240136959 453.55467373048697Q1039.978711793573 457.0037586506719 1025.7131088583865 457.0037586506719L1025.7131088583865 457.0037586506719Q1022.0059291482557 457.0037586506719 1018.4864547399038 456.88644283706014Q1014.9904434942742 456.76912702344845 1011.6117480622563 456.4171795826132L1011.6117480622563 456.4171795826132L1011.6117480622563 497.641956485776ZM1078.1767407055531 497.641956485776L1062.5502743324705 497.641956485776L1025.7131088583865 450.5044625765819L1040.8233856515776 450.5044625765819L1078.1767407055531 497.641956485776ZM1025.7131088583865 446.8676723546182L1025.7131088583865 446.8676723546182Q1042.1842490894737 446.8676723546182 1049.5282190215685 441.84655553203606Q1056.8721889536628 436.8254387094539 1056.8721889536628 426.5251102743438L1056.8721889536628 426.5251102743438Q1056.8721889536628 415.6147396084527 1050.0913349269044 410.89864390126104Q1043.2870177374243 406.15908503134705 1028.2471304324 406.15908503134705L1028.2471304324 406.15908503134705Q1023.2729399352626 406.15908503134705 1019.3311285979083 406.51103247218225Q1015.4127804232764 406.8395167502951 1011.6117480622563 407.59033795741016L1011.6117480622563 407.59033795741016L1011.6117480622563 446.28109328655955Q1015.5770225623329 446.53918807650535 1018.5333810653485 446.7034302155618Q1021.4897395683641 446.8676723546182 1025.7131088583865 446.8676723546182ZM1093.8735965668034 497.641956485776L1080.452667489621 497.641956485776L1118.0406541708198 397.1257673832436L1137.468152904923 397.1257673832436L1175.2203817251784 497.641956485776L1161.377115718994 497.641956485776L1126.6516348899213 403.03848438927497L1128.6694668840428 403.03848438927497L1093.8735965668034 497.641956485776ZM1154.3616300650124 466.2951710887211L1101.053324359841 466.2951710887211L1104.1739250019132 455.50211623644174L1151.3114189111075 455.50211623644174L1154.3616300650124 466.2951710887211ZM1205.8867354032855 497.641956485776L1192.2077115361571 497.641956485776L1192.2077115361571 397.1257673832436L1205.8867354032855 397.1257673832436L1205.8867354032855 497.641956485776ZM1231.1330984925303 521.0347297199555L1231.1330984925303 521.0347297199555L1222.1936334953161 515.2158653648135Q1226.7454870634515 509.3735378469492 1229.490677101966 503.88315776992016Q1232.2358671404804 498.3927776928911 1233.5028779274871 492.1515764087469Q1234.7698887144938 485.91037512460275 1234.7698887144938 477.7921208226709L1234.7698887144938 477.7921208226709L1234.7698887144938 397.1257673832436L1248.4489125816217 397.1257673832436L1248.4489125816217 478.8010368197318Q1248.4489125816217 487.2477753997765 1246.6891753774457 494.2163347283134Q1244.9059750105475 501.1848940568503 1241.1049426495274 507.66072696821794Q1237.3039102885073 514.1130967168633 1231.1330984925303 521.0347297199555ZM1278.9510241206722 497.641956485776L1265.5066318807676 497.641956485776L1303.0946185619669 397.1257673832436L1322.5221172960696 397.1257673832436L1360.2978092790477 497.641956485776L1346.4310801101406 497.641956485776L1311.72906244379 403.03848438927497L1313.746894437912 403.03848438927497L1278.9510241206722 497.641956485776ZM1339.415594456159 466.2951710887211L1286.1307519137104 466.2951710887211L1289.2513525557824 455.50211623644174L1336.3888464649763 455.50211623644174L1339.415594456159 466.2951710887211ZM1477.1912859617778 498.74472513372626L1477.1912859617778 498.74472513372626Q1456.0744395116658 498.74472513372626 1441.8088365764793 492.05772375785756Q1427.51977047857 485.39418554471115 1420.2696531973652 471.4101405621926Q1412.9960727534376 457.42609557967415 1412.9960727534376 435.39418578339075L1412.9960727534376 435.39418578339075Q1412.9960727534376 412.658381105437 1420.5042848245885 398.4866308211397Q1428.0359600584616 384.2914173741201 1441.8088365764793 377.65134232369604Q1455.5582499317743 371.03473043599433 1474.3287801096512 371.03473043599433L1474.3287801096512 371.03473043599433Q1481.4146552518 371.03473043599433 1488.3832145803367 371.94979378216584Q1495.3517739088738 372.88832029105976 1502.273406911966 374.7419101461251L1502.273406911966 374.7419101461251L1502.273406911966 386.6611968090771Q1494.6713421899258 384.5495121640659 1488.0781934649463 383.7283014687838Q1481.5085079026894 382.93055393622404 1475.0796013167665 382.93055393622404L1475.0796013167665 382.93055393622404Q1460.2039561507986 382.93055393622404 1449.5282171121312 387.9985970842509Q1438.8524780734633 393.06664023227773 1433.1040032064884 404.5635899662275Q1427.355528339514 416.03707653745494 1427.355528339514 435.39418578339075L1427.355528339514 435.39418578339075Q1427.355528339514 453.71891586954337 1432.845908416543 465.07508662715907Q1438.3362884935718 476.43125738477477 1449.2231959967407 481.68700583458036Q1460.133566662632 486.91929112166366 1476.3466121037732 486.91929112166366L1476.3466121037732 486.91929112166366Q1482.4235712488608 486.91929112166366 1487.7027828613886 486.40310154177206Q1492.981994473917 485.91037512460275 1497.5573112047746 485.0657012665983L1497.5573112047746 485.0657012665983L1492.1373206159124 490.7203234826838L1492.1373206159124 436.8254387094539L1505.1593759268148 436.8254387094539L1505.1593759268148 496.2810930478799Q1497.2053637639392 497.5481038348866 1490.6122150389597 498.1581460656676Q1484.0425294767028 498.74472513372626 1477.1912859617778 498.74472513372626ZM1533.9486765871338 497.641956485776L1520.5277475099515 497.641956485776L1558.1157341911508 397.1257673832436L1577.5432329252535 397.1257673832436L1615.2954617455089 497.641956485776L1601.452195739325 497.641956485776L1566.7267149102518 403.03848438927497L1568.7445469043737 403.03848438927497L1533.9486765871338 497.641956485776ZM1594.4367100853428 466.2951710887211L1541.128404380172 466.2951710887211L1544.249005022244 455.50211623644174L1591.386498931438 455.50211623644174L1594.4367100853428 466.2951710887211ZM1645.7975732845593 497.641956485776L1632.282791556488 497.641956485776L1632.282791556488 398.908967750142Q1638.6178454915216 397.71234645130227 1645.961815423616 396.8676725932978Q1653.3057853557102 396.02299873529336 1661.4944291458091 396.02299873529336L1661.4944291458091 396.02299873529336Q1682.9632230367565 396.02299873529336 1693.4747199363678 403.4138949928325Q1703.9862168359787 410.80479125037164 1703.9862168359787 426.3608681352874L1703.9862168359787 426.3608681352874Q1704.080069486868 436.49695443134107 1698.9651000133968 443.2778084580992Q1693.850130539925 450.0821256475797 1684.0190653592622 453.55467373048697Q1674.1645370158762 457.0037586506719 1659.8989340806897 457.0037586506719L1659.8989340806897 457.0037586506719Q1656.1682912078368 457.0037586506719 1652.672279962207 456.88644283706014Q1649.1762687165774 456.76912702344845 1645.7975732845593 456.4171795826132L1645.7975732845593 456.4171795826132L1645.7975732845593 497.641956485776ZM1712.3391027651342 497.641956485776L1696.7126363920515 497.641956485776L1659.8989340806897 450.5044625765819L1675.0092108738809 450.5044625765819L1712.3391027651342 497.641956485776ZM1659.8989340806897 446.8676723546182L1659.8989340806897 446.8676723546182Q1676.370074311777 446.8676723546182 1683.7140442438717 441.84655553203606Q1691.058014175966 436.8254387094539 1691.058014175966 426.5251102743438L1691.058014175966 426.5251102743438Q1691.058014175966 415.6147396084527 1684.2536969864855 410.89864390126104Q1677.4728429597271 406.15908503134705 1662.4329556547032 406.15908503134705L1662.4329556547032 406.15908503134705Q1657.4353019948435 406.15908503134705 1653.5169538202117 406.51103247218225Q1649.5986056455795 406.8395167502951 1645.7975732845593 407.59033795741016L1645.7975732845593 407.59033795741016L1645.7975732845593 446.28109328655955Q1649.762847784636 446.53918807650535 1652.7192062876516 446.7034302155618Q1655.6755647906675 446.8676723546182 1659.8989340806897 446.8676723546182ZM1762.1044708992313 497.641956485776L1748.425447032103 497.641956485776L1748.425447032103 447.97044100256846L1751.3818055351185 457.84843250867635L1709.6408390520642 397.1257673832436L1724.516484218032 397.1257673832436L1757.7168594701525 445.17832463860924L1753.305784878351 445.17832463860924L1786.0838232014694 397.1257673832436L1800.0209418585428 397.1257673832436L1759.1481123962153 457.84843250867635L1762.1044708992313 448.06429365345787L1762.1044708992313 497.641956485776Z " fill="#E2V144" transform="matrix(0.48610542555117997,0,0,0.48610542555117997,0,83.18009193826349)"/></g></svg>